inDegrees=no
num_controls=7
num_derivatives=13
num_iterations=21
num_multipliers=7
num_parameters=0
num_slacks=7
num_states=26
objective=0.455388
objective_accelerations=0.000000
objective_balance=0.001169
objective_effort=0.008327
objective_height=0.445892
objective_ligament=0.000000
solver_duration=326.754932
status=Solve_Succeeded
success=true
DataType=double
version=3
OpenSimVersion=4.5
endheader
time	/jointset/ground_pelvis/pelvis_tilt/value	/jointset/ground_pelvis/pelvis_tx/value	/jointset/ground_pelvis/pelvis_ty/value	/jointset/hip_l/hip_flexion_l/value	/jointset/hip_l/hip_adduction_l/value	/jointset/hip_l/hip_rotation_l/value	/jointset/back/lumbar_extension/value	/jointset/patellofemoral_l/patellar_flexion_l/value	/jointset/knee_l/knee_flexion_l/value	/jointset/knee_l/knee_adduction_l/value	/jointset/knee_l/knee_rotation_l/value	/jointset/ankle_l/ankle_angle_l/value	/jointset/subtalar_l/subtalar_angle_l/value	/jointset/ground_pelvis/pelvis_tilt/speed	/jointset/ground_pelvis/pelvis_tx/speed	/jointset/ground_pelvis/pelvis_ty/speed	/jointset/hip_l/hip_flexion_l/speed	/jointset/hip_l/hip_adduction_l/speed	/jointset/hip_l/hip_rotation_l/speed	/jointset/back/lumbar_extension/speed	/jointset/patellofemoral_l/patellar_flexion_l/speed	/jointset/knee_l/knee_flexion_l/speed	/jointset/knee_l/knee_adduction_l/speed	/jointset/knee_l/knee_rotation_l/speed	/jointset/ankle_l/ankle_angle_l/speed	/jointset/subtalar_l/subtalar_angle_l/speed	/forceset/tau_hip_flexion_l	/forceset/tau_hip_adduction_l	/forceset/tau_hip_rotation_l	/forceset/tau_knee_flexion_l	/forceset/tau_ankle_angle_l	/forceset/tau_subtalar_angle_l	/forceset/tau_lumbar_extension	lambda_cid13_p0	lambda_cid13_p1	lambda_cid13_p2	lambda_cid13_p3	lambda_cid13_p4	lambda_cid13_p5	lambda_cid14_p0	/jointset/ground_pelvis/pelvis_tilt/accel	/jointset/ground_pelvis/pelvis_tx/accel	/jointset/ground_pelvis/pelvis_ty/accel	/jointset/hip_l/hip_flexion_l/accel	/jointset/hip_l/hip_adduction_l/accel	/jointset/hip_l/hip_rotation_l/accel	/jointset/back/lumbar_extension/accel	/jointset/patellofemoral_l/patellar_flexion_l/accel	/jointset/knee_l/knee_flexion_l/accel	/jointset/knee_l/knee_adduction_l/accel	/jointset/knee_l/knee_rotation_l/accel	/jointset/ankle_l/ankle_angle_l/accel	/jointset/subtalar_l/subtalar_angle_l/accel	gamma_cid13_p0	gamma_cid13_p1	gamma_cid13_p2	gamma_cid13_p3	gamma_cid13_p4	gamma_cid13_p5	gamma_cid14_p0
1.5	-0.1488079934368011	0.09902000019228233	0.8732894674162182	0.5043955575397442	-0.287190631109665	-0.06861221171482401	-0.255617381058643	0.4390877469658406	0.4390877469657515	0.01599987379756052	-0.0137613509378968	0.1905686464767118	0.2090705170211595	0.0734641621871915	0.08701072447637972	0.09057285078526725	-0.6014285447893278	0.06137798188350333	-0.1645242276933568	0.2118004941715901	-0.7097787034202645	-0.7097787034202918	0.03938599641027713	0.05302608946194404	-0.211296196159331	-0.01580920253146695	-0.04761380659542735	0.08093924308065882	0.0159114895267003	-0.1196410527145839	-0.003050122532728836	-0.04430706565432263	0.07183361299950085	-32.75641666694322	27.59536748316759	-7.670164240469906	5.090126234510342	-463.8433915884073	-19.47939407275313	-19.22213216496473	-0.06019090212393373	-0.005193431005686135	0.04390784395985484	-0.6944087367646216	0.1665314512970457	-0.6950458285646663	0.5481850702263572	-1.463021508916652	-1.463021508916652	0.2099303541065074	-0.345945113913926	-0.736166266463206	-0.1073651251287042	-6.29874063263693e-08	3.237664856378926e-07	6.212668828788784e-08	5.96428323422763e-08	-6.806694763912171e-08	8.566577127626231e-08	-9.334356787005668e-09
1.51	-0.1480769465720798	0.09988969435819398	0.8741971125025201	0.4983480713306619	-0.2865684387997397	-0.07029347646686875	-0.2534715889985698	0.4319178581290251	0.4319178581307597	0.01640482449456247	-0.0132498663577378	0.1884191496835706	0.2089073147818473	0.07270989659509344	0.08691342606920228	0.09093521392842481	-0.6079662452323372	0.06307326074801164	-0.1717327282853848	0.2173684200301174	-0.7241294589518321	-0.7241294589518001	0.04162229208668389	0.0492495977251438	-0.2185920799997637	-0.01680946201971147	-0.04685453231168985	0.08046469350332437	0.01590479215999494	-0.1175748757523221	-0.003768628736037591	-0.04468048485670379	0.07110171052895867	-32.97161840098753	27.6593259398774	-7.525132912591407	5.271228384365905	-463.3125460422972	-19.45808261528313	-19.34630569621253	-0.08834925692657679	-0.01418755847117809	0.02924387586783314	-0.6180926553512262	0.1728882371755367	-0.7343439267231369	0.5626716580498693	-1.410659347461995	-1.410659347454735	0.2332654138324947	-0.3966753224075614	-0.7246333087661705	-0.09315305019753189	-6.810234004809366e-08	3.468380963464248e-07	7.253664672568522e-08	6.276907511029944e-08	-6.864991170061112e-08	8.824514880364947e-08	-1.141103548910491e-08
1.52	-0.1473545033373131	0.1007579776374396	0.8751077498855363	0.4922382797260478	-0.2859289212749938	-0.07204694457445605	-0.2512698026169776	0.4246065503840498	0.4246065503836138	0.01683269538420393	-0.01277678151073051	0.1861970272776655	0.2087347506098213	0.07174343623537939	0.08672854714319038	0.09117131012813597	-0.6138896239674267	0.06484302493613175	-0.1789648989646373	0.2229993584643237	-0.7380624853708639	-0.7380624853707726	0.04397003734077702	0.04534614123423271	-0.2258213184775294	-0.01768158908890225	-0.04609525802040711	0.07999014393592288	0.01589809474564525	-0.1155086987868449	-0.004487134936206445	-0.04505390404325925	0.07036980806251017	-33.19227713678298	27.72019426695787	-7.374988119924024	5.467001972822255	-462.8845729776571	-19.4599325815495	-19.46857818343002	-0.1026298556505292	-0.02270953477024646	0.01865445527003193	-0.571544395176766	0.1814285160194559	-0.6997798460085333	0.5607875853571607	-1.37947568640688	-1.37947568640688	0.2322202696425721	-0.3713380647365641	-0.7228371939258101	-0.08173864131733492	-7.313361248467319e-08	3.685742281096372e-07	8.257719264136561e-08	6.564766636168196e-08	-6.87025625938904e-08	9.090750102557645e-08	-1.354069694737291e-08
1.53	-0.1466427435198003	0.1016239862266417	0.8760201126992236	0.486072345096644	-0.2852713264535807	-0.0738728712651051	-0.2490113934388263	0.4171581444612988	0.4171581444491085	0.01728461128793633	-0.01234341146285362	0.1839030440668602	0.2085541557486183	0.07057363804676194	0.08645950500528563	0.09127925809787514	-0.619187494978183	0.06668739478872415	-0.1862140599298004	0.22869710282589	-0.7515322828187441	-0.7515322828187696	0.04642672601673038	0.04131179977750551	-0.232954332998961	-0.01841329970113828	-0.04533677474556986	0.07949917354497445	0.01586156742843246	-0.1133600748432179	-0.005160734630259063	-0.04544102263264106	0.06963304114643595	-33.39074091429996	27.77996977423736	-7.22106363370364	5.629887883262088	-462.3348139568155	-19.44037091709133	-19.58865768348555	-0.1293977076427681	-0.0310374721189804	0.003552205924580635	-0.4924489276339734	0.1875964221249035	-0.7365192388560339	0.5764617034992858	-1.317765785593588	-1.317765785609219	0.2545015716947177	-0.421879039501762	-0.7053813246225733	-0.06534751693789678	-7.807599480578633e-08	3.888914134934473e-07	9.222523775229673e-08	6.82631278766338e-08	-6.819175574594646e-08	9.365801386045201e-08	-1.57266525840702e-08
1.54	-0.145943730264203	0.1024868972107134	0.8769328924401977	0.4798567236612671	-0.2845949568866182	-0.0757710965737733	-0.2466955680490711	0.4095776337520581	0.409577633752092	0.0177615158145996	-0.01195086424019262	0.1815383611672426	0.2083669517321487	0.06919412357443731	0.08610902611709438	0.09125469558547165	-0.6238269849312129	0.06859797273829669	-0.1934246215807588	0.2344826008655584	-0.7644834407316236	-0.7644834407317653	0.04896775089420859	0.03718158418778272	-0.2399612572555216	-0.01900342014562766	-0.0445782915051352	0.07900820310950692	0.01582504034589009	-0.1112114509105315	-0.005834334337080064	-0.04582814129460368	0.06889627420994369	-33.5945050717333	27.83666079203675	-7.062064267964841	5.808318126831226	-461.8832927650742	-19.44235035309253	-19.70627598666573	-0.1445731123977429	-0.03899688482672418	-0.007847641159095295	-0.439868183630898	0.1946701354109426	-0.6920599831669556	0.5783383209736265	-1.275747779403186	-1.275747779403185	0.2490875099466625	-0.3905128913342654	-0.6976191409490938	-0.05342060776743573	-8.298303920519286e-08	4.079643953638025e-07	1.023799078401461e-07	7.063643247704242e-08	-6.71512177604026e-08	9.500794304718382e-08	-1.802668597751663e-08
1.55	-0.1452595096768337	0.1033459129700333	0.8778447622251022	0.4735980261078137	-0.2838990889576296	-0.07774131867317943	-0.2443214418223887	0.4018703838060926	0.4018703838103096	0.01826440083799714	-0.0116001582851809	0.1791043696595262	0.2081746842440771	0.0676156928838138	0.085681937343773	0.0910963070573808	-0.627793121105897	0.0705906927941217	-0.2006102333861891	0.2403631682677774	-0.7768586274487257	-0.7768586274488039	0.05163179824373305	0.03294588867937778	-0.2468025366232863	-0.01941614880166924	-0.04383045141782285	0.07851011566253172	0.01575577636744425	-0.1089829702990302	-0.006454948870244063	-0.04622709207511543	0.06816327520457846	-33.77351850437159	27.8913163497961	-6.89949570045666	5.945843562991807	-461.3176086603969	-19.42520883580863	-19.82117606110482	-0.1696345600769403	-0.04637834855784813	-0.02329052750165232	-0.3570890435900074	0.2037637802622856	-0.7303707424903569	0.5959945040665782	-1.202211651535781	-1.202211651529417	0.2785249082634938	-0.4421403129332481	-0.6722026596217202	-0.03019045167908461	-8.784936817306787e-08	4.256038384034379e-07	1.131182980100969e-07	7.273073019765128e-08	-6.550033737718928e-08	9.474415629148922e-08	-2.045815678634792e-08
1.56	-0.1445921046995891	0.1042002951466061	0.8787543569109809	0.4673032466510627	-0.283182855663649	-0.07978310868107683	-0.2418878942106902	0.3940426204897243	0.3940426204895224	0.01879461862612933	-0.01129221775605103	0.1766030012911838	0.2079792911779002	0.06583100168466366	0.08518230956767604	0.09079967578028375	-0.6310433656498321	0.07267104643113384	-0.2077382037209431	0.2463668778392511	-0.7885861155126824	-0.7885861155126977	0.05443430802625952	0.0286284958767953	-0.2534366289882266	-0.01962853574362502	-0.04308261131685444	0.07801202823255399	0.01568651229643258	-0.1067544896827274	-0.007075563398127194	-0.04662604282816801	0.06743027620698609	-33.95758516326803	27.94294213328689	-6.731972921315603	6.099452293898265	-460.8437146012378	-19.42742753666014	-19.93313070081721	-0.1858252141054587	-0.05350468537952437	-0.03549619096082236	-0.2966898574764446	0.212196851648868	-0.6805316890325707	0.6029667548198459	-1.146208048772167	-1.146208048772168	0.2767799965464972	-0.4068523501708858	-0.6561817403805139	-0.0133522649495157	-9.301831520580997e-08	4.429099769000601e-07	1.251846086965986e-07	7.472866843202932e-08	-6.336668682006657e-08	9.365853613490552e-08	-2.32007070850136e-08
1.57	-0.1439435012762776	0.1050493402881515	0.8796602988539551	0.4609795345349162	-0.2824453170820794	-0.0818959908803305	-0.2393937037381505	0.3861009937961433	0.3861009937987959	0.01935370948783317	-0.01102793701506412	0.1740364659216309	0.2077829086758045	0.06385788543581687	0.08461652293815107	0.09036529159508773	-0.6335724716310521	0.0748547587431372	-0.214826307550418	0.2524967785067124	-0.7996093481566543	-0.7996093481566445	0.05741480803672222	0.02421457068096312	-0.2598212880391026	-0.0196047258881474	-0.04235011590399496	0.07751083682036293	0.01558279176496515	-0.1044593207141773	-0.007629085811255457	-0.04703380712804799	0.06670568463266001	-34.11290566963694	27.9914017633328	-6.561705706202265	6.205106005964873	-460.2707864134272	-19.41426542268841	-20.04193365601799	-0.2078380586242321	-0.05962947693530097	-0.05093452743150777	-0.2120486841027563	0.2240917990744778	-0.7211569191224857	0.6218359830374406	-1.060894019275123	-1.060894019275447	0.313414368796088	-0.4606059363289051	-0.6222315019071921	0.01664421642701506	-9.856553481963597e-08	4.597994847179158e-07	1.389108200287887e-07	7.660615730861887e-08	-6.062957354555713e-08	9.154562422721042e-08	-2.633210674597227e-08
1.58	-0.1433155856618283	0.1058924247983434	0.8805611919560858	0.45463432581614	-0.2816854147060563	-0.08407939555337898	-0.236837447406704	0.3780530321490042	0.3780530321487039	0.01994355120671966	-0.01080818418057088	0.1714075592569159	0.207588043593174	0.06169344005183516	0.08399018329696571	0.08978990761152685	-0.6353426862396141	0.07714380617719342	-0.2218426989478827	0.2587800495877854	-0.8098531066831995	-0.8098531066831652	0.06058448266741425	0.01972291220316046	-0.2659108876685134	-0.01932505180713557	-0.04161762047673848	0.07700964542382002	0.01547907116438474	-0.1021641517396551	-0.008182608219249351	-0.04744157140294177	0.06598109306660049	-34.27293885654937	28.03693503097646	-6.386686953080625	6.327069764280738	-459.7812217357688	-19.41751349643753	-20.14741661943139	-0.224091041134942	-0.06561528770885854	-0.06369615063424999	-0.1449115829407415	0.2332638760585144	-0.6661892026306283	0.6336408375377727	-0.990313225285491	-0.9903132252854914	0.3146149205899331	-0.4223990065650459	-0.5971698560836632	0.03782058015729853	-1.046587286581177e-07	4.760920401361201e-07	1.554945340209823e-07	7.835858326691816e-08	-5.751458863932656e-08	8.733922453296309e-08	-3.002926868918776e-08
